<?xml version="1.0" encoding="UTF-8" standalone="no"?>
<!-- Created with Inkscape (http://www.inkscape.org/) -->

<svg
   xmlns:dc="http://purl.org/dc/elements/1.1/"
   xmlns:cc="http://creativecommons.org/ns#"
   xmlns:rdf="http://www.w3.org/1999/02/22-rdf-syntax-ns#"
   xmlns:svg="http://www.w3.org/2000/svg"
   xmlns="http://www.w3.org/2000/svg"
   xmlns:sodipodi="http://sodipodi.sourceforge.net/DTD/sodipodi-0.dtd"
   xmlns:inkscape="http://www.inkscape.org/namespaces/inkscape"
   id="svg7389"
   version="1.1"
   inkscape:version="0.91 r13725"
   xml:space="preserve"
   width="640"
   height="640"
   viewBox="0 0 640 640"
   sodipodi:docname="launcher_icon.svg"
   inkscape:export-filename="C:\Development\Android\Projects\canibreathe\app\src\main\res\mipmap-mdpi\ic_launcher.png"
   inkscape:export-xdpi="6.75"
   inkscape:export-ydpi="6.75"><metadata
     id="metadata7395"><rdf:RDF><cc:Work
         rdf:about=""><dc:format>image/svg+xml</dc:format><dc:type
           rdf:resource="http://purl.org/dc/dcmitype/StillImage" /><dc:title></dc:title></cc:Work></rdf:RDF></metadata><defs
     id="defs7393"><clipPath
       clipPathUnits="userSpaceOnUse"
       id="clipPath7403"><path
         d="M 0,512 512,512 512,0 0,0 0,512 Z"
         id="path7405"
         inkscape:connector-curvature="0" /></clipPath><clipPath
       clipPathUnits="userSpaceOnUse"
       id="clipPath7415"><path
         d="M 12.215,512 C 5.468,512 0,506.574 0,499.882 l 0,0 L 0,12.118 C 0,5.426 5.468,0 12.215,0 l 0,0 487.57,0 C 506.531,0 512,5.426 512,12.118 l 0,0 0,487.764 C 512,506.574 506.531,512 499.785,512 l 0,0 -487.57,0 z"
         id="path7417"
         inkscape:connector-curvature="0" /></clipPath><clipPath
       clipPathUnits="userSpaceOnUse"
       id="clipPath7443"><path
         d="M 0,512 512,512 512,0 0,0 0,512 Z"
         id="path7445"
         inkscape:connector-curvature="0" /></clipPath><clipPath
       clipPathUnits="userSpaceOnUse"
       id="clipPath7451"><path
         d="m 13.5547,415.267 430.6553,0 0,-252.174 -430.6553,0 0,252.174 z"
         id="path7453"
         inkscape:connector-curvature="0" /></clipPath><clipPath
       clipPathUnits="userSpaceOnUse"
       id="clipPath7467"><path
         d="m 104.189,326.68 343.559,0 0,-201.174 -343.559,0 0,201.174 z"
         id="path7469"
         inkscape:connector-curvature="0" /></clipPath><clipPath
       clipPathUnits="userSpaceOnUse"
       id="clipPath7443-6"><path
         d="M 0,512 512,512 512,0 0,0 0,512 Z"
         id="path7445-8"
         inkscape:connector-curvature="0" /></clipPath><clipPath
       clipPathUnits="userSpaceOnUse"
       id="clipPath7451-9"><path
         d="m 13.5547,415.267 430.6553,0 0,-252.174 -430.6553,0 0,252.174 z"
         id="path7453-2"
         inkscape:connector-curvature="0" /></clipPath><clipPath
       clipPathUnits="userSpaceOnUse"
       id="clipPath7467-9"><path
         d="m 104.189,326.68 343.559,0 0,-201.174 -343.559,0 0,201.174 z"
         id="path7469-5"
         inkscape:connector-curvature="0" /></clipPath></defs><sodipodi:namedview
     pagecolor="#ffffff"
     bordercolor="#666666"
     borderopacity="1"
     objecttolerance="10"
     gridtolerance="10"
     guidetolerance="10"
     inkscape:pageopacity="0"
     inkscape:pageshadow="2"
     inkscape:window-width="1600"
     inkscape:window-height="838"
     id="namedview7391"
     showgrid="false"
     inkscape:zoom="0.36875"
     inkscape:cx="320"
     inkscape:cy="320"
     inkscape:window-x="-8"
     inkscape:window-y="-8"
     inkscape:window-maximized="1"
     inkscape:current-layer="layer3" /><g
     id="g7397"
     inkscape:groupmode="layer"
     inkscape:label="launch icon"
     transform="matrix(1.25,0,0,-1.25,0,640)"><g
       id="g7399"><g
         id="g7401"
         clip-path="url(#clipPath7403)"><g
           id="g7407"
           transform="translate(512,12.1182)"><path
             d="m 0,0 c 0,-6.692 -5.469,-12.118 -12.215,-12.118 l -487.57,0 C -506.531,-12.118 -512,-6.692 -512,0 l 0,487.764 c 0,6.692 5.469,12.118 12.215,12.118 l 487.57,0 C -5.469,499.882 0,494.456 0,487.764 L 0,0 Z"
             style="fill:#46a6dd;fill-opacity:1;fill-rule:nonzero;stroke:none"
             id="path7409"
             inkscape:connector-curvature="0" /></g></g></g><g
       id="g7411"><g
         id="g7413"
         clip-path="url(#clipPath7415)"><g
           id="g7419"
           transform="translate(267.3447,-2.0859)"><path
             d="m 0,0 c 0,-117.887 -95.566,-213.453 -213.453,-213.453 -117.887,0 -213.453,95.566 -213.453,213.453 0,117.888 95.566,213.454 213.453,213.454 C -95.566,213.454 0,117.888 0,0"
             style="fill:#56b158;fill-opacity:1;fill-rule:nonzero;stroke:none"
             id="path7421"
             inkscape:connector-curvature="0" /></g><g
           id="g7423"
           transform="translate(267.4609,-41.5713)"><path
             d="m 0,0 c 0,-117.887 -95.567,-213.453 -213.454,-213.453 -117.887,0 -213.453,95.566 -213.453,213.453 0,117.887 95.566,213.453 213.453,213.453 C -95.567,213.453 0,117.887 0,0"
             style="fill:#feeb47;fill-opacity:1;fill-rule:nonzero;stroke:none"
             id="path7425"
             inkscape:connector-curvature="0" /></g><g
           id="g7427"
           transform="translate(266.2588,-72.5615)"><path
             d="m 0,0 c 0,-117.887 -95.567,-213.453 -213.454,-213.453 -117.887,0 -213.453,95.566 -213.453,213.453 0,117.888 95.566,213.454 213.453,213.454 C -95.567,213.454 0,117.888 0,0"
             style="fill:#f89b33;fill-opacity:1;fill-rule:nonzero;stroke:none"
             id="path7429"
             inkscape:connector-curvature="0" /></g><g
           id="g7431"
           transform="translate(266.2471,-104.8564)"><path
             d="m 0,0 c 0,-117.888 -95.565,-213.453 -213.453,-213.453 -117.887,0 -213.453,95.565 -213.453,213.453 0,117.887 95.566,213.454 213.453,213.454 C -95.565,213.454 0,117.887 0,0"
             style="fill:#f05046;fill-opacity:1;fill-rule:nonzero;stroke:none"
             id="path7433"
             inkscape:connector-curvature="0" /></g><g
           id="g7435"
           transform="translate(265.4375,-132.3525)"><path
             d="m 0,0 c 0,-117.888 -95.566,-213.454 -213.453,-213.454 -117.887,0 -213.453,95.566 -213.453,213.454 0,117.887 95.566,213.453 213.453,213.453 C -95.566,213.453 0,117.887 0,0"
             style="fill:#6d53a0;fill-opacity:1;fill-rule:nonzero;stroke:none"
             id="path7437"
             inkscape:connector-curvature="0" /></g></g></g></g><g
     inkscape:groupmode="layer"
     id="layer2"
     inkscape:label="sun"><g
       transform="matrix(2.4303687,0,0,2.3797468,-103.58503,-295.73723)"
       id="g4730"><g
         transform="translate(-213.48948,30.851079)"
         id="g4666"><rect
           style="opacity:1;fill:#ffff00;stroke:#0000ff;stroke-width:0.91836727;stroke-opacity:0.52903221"
           id="rect4645-4"
           width="89.081635"
           height="89.081635"
           x="-209.4257"
           y="403.29092"
           transform="matrix(0,-1,1,0,0,0)" /><rect
           style="opacity:1;fill:#ff9800;fill-opacity:1;stroke:#0000ff;stroke-width:0.91836727;stroke-opacity:0.52903221"
           id="rect4645"
           width="89.081635"
           height="89.081635"
           x="156.24776"
           y="388.28372"
           transform="matrix(0.70710678,-0.70710678,0.70710678,0.70710678,0,0)" /><circle
           style="opacity:1;fill:#ffeb3b;fill-opacity:1;stroke:#0000ff;stroke-opacity:0.52903221"
           id="path4641"
           cx="164.63806"
           cy="-446.72363"
           r="48.127686"
           transform="matrix(0,1,-1,0,0,0)" /></g><circle
         style="opacity:1;fill:#000000;stroke:none;stroke-opacity:0.52903221"
         id="path5373"
         cx="218.25014"
         cy="182.09325"
         r="6.0714288" /><circle
         style="opacity:1;fill:#000000;stroke:none;stroke-opacity:0.52903221"
         id="path5373-1"
         cx="245.75014"
         cy="181.7361"
         r="6.0714288" /><path
         sodipodi:nodetypes="ccc"
         inkscape:connector-curvature="0"
         id="path5634"
         d="m 216.57459,203.51044 31.46811,0 c -8.20344,10.85818 -16.80437,19.82824 -31.46811,0 z"
         style="fill:#000000;fill-rule:evenodd;stroke:#000000;stroke-width:1px;stroke-linecap:butt;stroke-linejoin:miter;stroke-opacity:1" /></g></g><g
     inkscape:groupmode="layer"
     id="layer3"
     inkscape:label="clouds"
     style="opacity:1"><g
       clip-path="url(#clipPath7443-6)"
       id="g7441"
       transform="matrix(1.25,0,0,-1.25,8.7502011,631.05378)"><g
         id="g7447"><g
           id="g7449" /><g
           id="g7455"><g
             style="opacity:0.60000598"
             id="g7457"
             clip-path="url(#clipPath7451-9)"><g
               id="g7459"
               transform="translate(82.0645,343.8477)"><path
                 inkscape:connector-curvature="0"
                 id="path7461"
                 style="fill:#ffffff;fill-opacity:1;fill-rule:nonzero;stroke:none"
                 d="m 0,0 c 1.322,1.422 2.474,2.889 3.424,4.414 21.485,34.512 45.194,85.024 95.428,60.542 26.325,-12.833 40.639,-35.845 62.004,-54.269 -5.427,4.674 2.869,25.715 5.498,31.188 5.072,10.545 13.087,20.798 23.852,25.953 21.11,10.107 44.438,-10.861 57.538,-25.614 6.561,-7.392 18.439,-28.252 30.375,-21.248 8.013,4.704 9.086,16.244 18.593,19.443 10.998,3.7 20.492,-5.74 26.795,-13.668 11.963,-15.043 8.223,-35.072 14.671,-52.116 5.773,-15.26 26.769,-26.911 23.654,-44.767 -2.248,-12.883 -16.577,-12.653 -25.996,-17.15 -17.849,-8.524 -12.172,-35.492 -16.472,-51.755 -5.41,-20.471 -17.624,-37.721 -39.787,-41.13 -23.594,-3.625 -42.749,10.292 -56.776,27.844 -11.095,13.882 -20.035,29.029 -27.716,45.032 -3.341,-22.028 -21.248,-36.495 -36.239,-51.312 -27.677,-27.362 -70.355,-30.374 -91.028,6.347 -10.184,18.084 -11.764,37.893 -18.291,57.172 0.889,-2.62 -26.086,-13.238 -28.726,-14.236 -15.163,-5.748 -32.636,-11.451 -49.031,-9.881 -30.232,2.899 -43.698,34.44 -39.544,61.245 2.36,15.256 11.381,23.53 24.095,31.18 C -31.722,-19.597 -10.541,-11.342 0,0" /></g></g></g></g><g
         id="g7463"><g
           id="g7465" /><g
           id="g7471"><g
             style="opacity:0.80000299"
             id="g7473"
             clip-path="url(#clipPath7467-9)"><g
               id="g7475"
               transform="translate(158.8433,269.7046)"><path
                 inkscape:connector-curvature="0"
                 id="path7477"
                 style="fill:#ffffff;fill-opacity:1;fill-rule:nonzero;stroke:none"
                 d="M 0,0 C 1.055,1.135 1.974,2.305 2.731,3.521 19.871,31.054 38.785,71.35 78.86,51.819 99.861,41.582 111.28,23.224 128.325,8.526 c -4.33,3.729 2.288,20.514 4.385,24.88 4.046,8.413 10.441,16.592 19.029,20.704 16.841,8.063 35.45,-8.664 45.901,-20.433 5.234,-5.897 14.709,-22.538 24.232,-16.951 6.392,3.753 7.249,12.959 14.833,15.51 8.773,2.953 16.347,-4.578 21.376,-10.903 9.543,-12.001 6.56,-27.979 11.704,-41.576 4.605,-12.174 21.355,-21.468 18.87,-35.713 -1.794,-10.278 -13.225,-10.094 -20.738,-13.682 -14.24,-6.8 -9.711,-28.314 -13.141,-41.287 -4.317,-16.331 -14.06,-30.093 -31.74,-32.813 -18.823,-2.891 -34.104,8.211 -45.294,22.213 -8.852,11.074 -15.984,23.158 -22.112,35.925 -2.665,-17.573 -16.95,-29.114 -28.91,-40.935 -22.079,-21.828 -56.126,-24.231 -72.617,5.064 -8.125,14.427 -9.386,30.229 -14.592,45.609 0.709,-2.09 -20.811,-10.56 -22.917,-11.357 -12.096,-4.585 -26.036,-9.135 -39.115,-7.882 -24.118,2.312 -34.86,27.474 -31.546,48.858 1.883,12.171 9.079,18.772 19.222,24.874 C -25.307,-15.633 -8.409,-9.048 0,0" /></g></g></g></g><g
         transform="translate(303.2471,172.8584)"
         id="g7479"><path
           inkscape:connector-curvature="0"
           id="path7481"
           style="fill:#ffffff;fill-opacity:1;fill-rule:nonzero;stroke:none"
           d="M 0,0 C 0.661,0.712 1.237,1.446 1.713,2.209 12.463,19.477 24.325,44.75 49.46,32.501 62.632,26.08 69.793,14.566 80.483,5.348 c -2.715,2.339 1.436,12.866 2.751,15.605 2.538,5.276 6.548,10.405 11.935,12.985 10.562,5.057 22.233,-5.435 28.789,-12.816 3.282,-3.698 9.225,-14.136 15.197,-10.631 4.01,2.353 4.547,8.127 9.303,9.728 5.503,1.851 10.254,-2.871 13.407,-6.838 5.986,-7.527 4.114,-17.549 7.341,-26.076 2.889,-7.636 13.394,-13.465 11.835,-22.399 -1.125,-6.447 -8.294,-6.332 -13.007,-8.582 -8.93,-4.264 -6.091,-17.758 -8.242,-25.894 -2.707,-10.243 -8.817,-18.874 -19.906,-20.58 -11.806,-1.814 -21.39,5.15 -28.408,13.931 -5.552,6.946 -10.025,14.525 -13.869,22.532 -1.671,-11.022 -10.63,-18.26 -18.131,-25.673 -13.848,-13.691 -35.203,-15.199 -45.545,3.175 -5.096,9.048 -5.887,18.959 -9.153,28.606 0.446,-1.311 -13.051,-6.624 -14.373,-7.123 -7.586,-2.876 -16.329,-5.73 -24.531,-4.944 -15.127,1.451 -21.865,17.231 -19.787,30.644 1.182,7.633 5.695,11.773 12.057,15.601 C -15.872,-9.805 -5.274,-5.674 0,0" /></g></g><text
       y="355.98416"
       x="138.98645"
       style="font-variant:normal;font-weight:normal;font-stretch:normal;font-size:150px;font-family:'Myriad Pro';-inkscape-font-specification:MyriadPro-Regular;writing-mode:lr-tb;fill:#338bc9;fill-opacity:1;fill-rule:nonzero;stroke:none"
       id="text7483"><tspan
         x="138.98645 216.98645 337.58646 414.53644 445.58646"
         y="355.98416"
         sodipodi:role="line"
         id="tspan7485">PM2.5</tspan></text>
</g></svg>